<?xml version="1.0" encoding="UTF-8"?>
<!DOCTYPE svg PUBLIC "-//W3C//DTD SVG 1.1//EN" "http://www.w3.org/Graphics/SVG/1.1/DTD/svg11.dtd">
<svg xmlns="http://www.w3.org/2000/svg" version="1.1" width="587px" height="693px" style="shape-rendering:geometricPrecision; text-rendering:geometricPrecision; image-rendering:optimizeQuality; fill-rule:evenodd; clip-rule:evenodd" xmlns:xlink="http://www.w3.org/1999/xlink">
<g><path style="opacity:1" fill="#040506" d="M 395.5,18.5 C 399.634,19.4849 403.968,19.8182 408.5,19.5C 427.639,17.8272 440.806,25.8272 448,43.5C 449.622,75.7992 449.956,108.133 449,140.5C 447.57,151.527 442.404,160.361 433.5,167C 391.167,206.667 348.833,246.333 306.5,286C 294.423,295.512 282.09,295.845 269.5,287C 238,253.5 206.5,220 175,186.5C 168.91,178.705 166.91,170.038 169,160.5C 172.508,151.007 178.341,143.173 186.5,137C 228.199,97.6326 270.199,58.6326 312.5,20C 320.32,15.1501 328.82,13.3168 338,14.5C 357.267,15.2004 376.434,16.5338 395.5,18.5 Z M 411.5,71.5 C 410.913,75.2625 410.913,78.9292 411.5,82.5C 406.696,96.242 397.03,101.742 382.5,99C 368.662,94.5066 363.162,85.0066 366,70.5C 371.034,57.3959 380.534,52.2293 394.5,55C 403.284,57.2843 408.951,62.7843 411.5,71.5 Z M 358.5,106.5 C 358.5,107.5 358.5,108.5 358.5,109.5C 355.305,112.197 352.305,115.031 349.5,118C 356.74,125.486 360.74,134.486 361.5,145C 360.047,157.725 353.381,161.725 341.5,157C 340.333,155.833 339.167,154.667 338,153.5C 338.087,139.503 331.92,129.336 319.5,123C 310.909,121.41 305.576,124.91 303.5,133.5C 304.154,135.115 304.654,136.782 305,138.5C 310.583,146.664 315.916,154.997 321,163.5C 328.899,186.499 321.733,202.666 299.5,212C 286.032,214.868 273.698,212.368 262.5,204.5C 259.098,207.91 255.431,210.91 251.5,213.5C 247.167,211.167 243.833,207.833 241.5,203.5C 244.425,199.234 247.758,195.234 251.5,191.5C 243.173,182.015 240.006,171.015 242,158.5C 244.38,150.135 249.88,146.968 258.5,149C 267.361,153.244 269.694,159.91 265.5,169C 269.5,178.333 276.167,185 285.5,189C 294.161,189.696 299.494,185.696 301.5,177C 301,175.5 300.5,174 300,172.5C 296.054,166.221 291.721,160.221 287,154.5C 278.365,139.769 278.365,125.102 287,110.5C 297.059,99.9494 309.225,96.4494 323.5,100C 328.473,101.237 332.973,103.404 337,106.5C 341.011,103.153 345.011,99.8198 349,96.5C 352.845,99.1889 356.011,102.522 358.5,106.5 Z"/></g>
<g><path style="opacity:0.498" fill="#8cb7ea" d="M 408.5,19.5 C 403.968,19.8182 399.634,19.4849 395.5,18.5C 399.437,18.7935 403.27,18.4601 407,17.5C 407.717,18.0442 408.217,18.7109 408.5,19.5 Z"/></g>
<g><path style="opacity:1" fill="#090b0d" d="M 122.5,156.5 C 122.875,158.698 123.542,160.698 124.5,162.5C 140.965,220.025 156.965,277.691 172.5,335.5C 273.224,335.993 373.89,335.493 474.5,334C 480.606,331.557 484.106,327.057 485,320.5C 497.195,269.054 509.695,217.72 522.5,166.5C 523.234,165.122 523.901,163.622 524.5,162C 523.744,160.62 523.078,160.453 522.5,161.5C 505.497,161.667 488.497,161.5 471.5,161C 471,160.5 470.5,160 470,159.5C 469.333,150.833 469.333,142.167 470,133.5C 470.671,132.748 471.504,132.414 472.5,132.5C 493.833,132.5 515.167,132.5 536.5,132.5C 547.719,133.545 554.886,139.545 558,150.5C 558.717,156.225 558.384,161.891 557,167.5C 543.49,223.875 529.823,280.208 516,336.5C 509.865,353.475 498.032,363.808 480.5,367.5C 380.499,367.333 280.499,367.5 180.5,368C 181.099,369.622 181.766,371.122 182.5,372.5C 184.31,379.432 186.81,386.098 190,392.5C 192.669,395.164 195.836,396.998 199.5,398C 293.5,398.333 387.5,398.667 481.5,399C 494.027,403.933 497.527,412.433 492,424.5C 489.072,428.381 485.239,430.881 480.5,432C 384.5,432.667 288.5,432.667 192.5,432C 172.955,427.456 160.122,415.622 154,396.5C 126.51,298.206 99.1766,199.873 72,101.5C 53.9068,100.674 35.7402,100.174 17.5,100C 4.10971,94.0997 0.94304,84.9331 8,72.5C 10.5641,70.2728 13.3974,68.4394 16.5,67C 36.5,66.3333 56.5,66.3333 76.5,67C 89.5662,69.7327 98.7328,77.2327 104,89.5C 110.644,111.747 116.811,134.081 122.5,156.5 Z"/></g>
<g><path style="opacity:1" fill="#83afe8" d="M 411.5,71.5 C 412.833,75.1667 412.833,78.8333 411.5,82.5C 410.913,78.9292 410.913,75.2625 411.5,71.5 Z"/></g>
<g><path style="opacity:1" fill="#618ad6" d="M 358.5,106.5 C 360.985,107.26 360.985,108.26 358.5,109.5C 358.5,108.5 358.5,107.5 358.5,106.5 Z"/></g>
<g><path style="opacity:0.747" fill="#3a92dc" d="M 536.5,132.5 C 515.167,132.5 493.833,132.5 472.5,132.5C 488.039,131.819 503.706,131.152 519.5,130.5C 525.298,131.126 530.964,131.793 536.5,132.5 Z"/></g>
<g><path style="opacity:0.496" fill="#7891d9" d="M 122.5,156.5 C 124.28,157.99 124.946,159.99 124.5,162.5C 123.542,160.698 122.875,158.698 122.5,156.5 Z"/></g>
<g><path style="opacity:0.996" fill="#8298dc" d="M 522.5,166.5 C 522.5,164.833 522.5,163.167 522.5,161.5C 523.078,160.453 523.744,160.62 524.5,162C 523.901,163.622 523.234,165.122 522.5,166.5 Z"/></g>
<g><path style="opacity:0.496" fill="#b9d7ef" d="M 480.5,367.5 C 381.335,368.499 282.001,368.833 182.5,368.5C 182.5,369.833 182.5,371.167 182.5,372.5C 181.766,371.122 181.099,369.622 180.5,368C 280.499,367.5 380.499,367.333 480.5,367.5 Z"/></g>
<g><path style="opacity:1" fill="#07080a" d="M 218.5,454.5 C 239.159,453.995 252.325,463.662 258,483.5C 258.987,504.355 249.487,517.855 229.5,524C 208.784,525.396 195.284,516.229 189,496.5C 187.321,474.354 197.154,460.354 218.5,454.5 Z"/></g>
<g><path style="opacity:1" fill="#090a0b" d="M 406.5,454.5 C 434.436,455.27 447.603,469.603 446,497.5C 439.527,516.306 426.36,525.14 406.5,524C 385.093,517.911 375.593,503.744 378,481.5C 382.553,467.11 392.053,458.11 406.5,454.5 Z"/></g>
<g><path style="opacity:1" fill="#040405" d="M 297.5,607.5 C 289.5,607.5 281.5,607.5 273.5,607.5C 273.5,625.833 273.5,644.167 273.5,662.5C 271.443,670.379 266.276,674.379 258,674.5C 249.513,673.514 244.347,668.847 242.5,660.5C 242.5,642.833 242.5,625.167 242.5,607.5C 234.833,607.5 227.167,607.5 219.5,607.5C 213.674,607.843 211.174,605.176 212,599.5C 225.167,582.333 238.333,565.167 251.5,548C 255.871,544.816 260.205,544.816 264.5,548C 278.619,565.447 291.952,583.447 304.5,602C 303.747,605.926 301.413,607.759 297.5,607.5 Z"/></g>
<g><path style="opacity:1" fill="#030404" d="M 387.5,558.5 C 387.5,574.833 387.5,591.167 387.5,607.5C 396.5,607.5 405.5,607.5 414.5,607.5C 418.318,608.799 419.818,611.466 419,615.5C 405.217,634.285 391.05,652.785 376.5,671C 371.122,672.064 366.956,670.231 364,665.5C 352.052,648.552 339.719,631.885 327,615.5C 325.752,611.255 327.252,608.588 331.5,607.5C 339.833,607.5 348.167,607.5 356.5,607.5C 356.5,591.5 356.5,575.5 356.5,559.5C 360.652,546.169 368.985,542.669 381.5,549C 384.98,551.297 386.98,554.464 387.5,558.5 Z"/></g>
<g><path style="opacity:0.497" fill="#8bbbe3" d="M 387.5,558.5 C 388.331,573.995 388.831,589.661 389,605.5C 397.598,606.154 406.098,606.82 414.5,607.5C 405.5,607.5 396.5,607.5 387.5,607.5C 387.5,591.167 387.5,574.833 387.5,558.5 Z"/></g>
<g><path style="opacity:0.498" fill="#4288d0" d="M 356.5,559.5 C 356.5,575.5 356.5,591.5 356.5,607.5C 348.167,607.5 339.833,607.5 331.5,607.5C 339.316,606.508 347.316,606.174 355.5,606.5C 355.17,590.658 355.504,574.991 356.5,559.5 Z"/></g>
<g><path style="opacity:0.498" fill="#739ad7" d="M 297.5,607.5 C 290.018,608.492 282.352,608.825 274.5,608.5C 274.83,626.674 274.497,644.674 273.5,662.5C 273.5,644.167 273.5,625.833 273.5,607.5C 281.5,607.5 289.5,607.5 297.5,607.5 Z"/></g>
<g><path style="opacity:0.498" fill="#0e5fbf" d="M 219.5,607.5 C 227.167,607.5 234.833,607.5 242.5,607.5C 242.5,625.167 242.5,642.833 242.5,660.5C 241.503,643.341 241.17,626.008 241.5,608.5C 233.981,608.825 226.648,608.492 219.5,607.5 Z"/></g>
</svg>
